<?xml version="1.0" encoding="utf-8"?>
<!-- Generator: Adobe Illustrator 25.3.0, SVG Export Plug-In . SVG Version: 6.00 Build 0)  -->
<svg version="1.1" id="Ebene_1" xmlns="http://www.w3.org/2000/svg" xmlns:xlink="http://www.w3.org/1999/xlink" x="0px" y="0px"
	 viewBox="0 0 173.5 42.5" style="enable-background:new 0 0 173.5 42.5;" xml:space="preserve">
<style type="text/css">
	.st0{fill:#FFFFFF;}
</style>
<path class="st0" d="M32.1,1H7.8C4.4,1,1.6,3.8,1.6,7.3v24.3c0,3.4,2.8,6.2,6.2,6.2h24.3c3.4,0,6.2-2.8,6.2-6.2V7.2
	C38.3,3.8,35.5,1,32.1,1z M19,16v4.8h-4.8v5.8H8.4v-5.8h5.8V16H8.4v-5.8H5.5V7.3h2.9v2.9h5.8V6.3h3.9v3.9h-3.9V16H19v-4.8h4.8V16
	h3.9v-3.9h3.9V9.2h2.9v2.9h-2.9V16h-3.9v3.9h-3.9V16H19z M29.8,30.7l-4,4V22.3l9.6,7.7L29.8,30.7z"/>
<path class="st0" d="M53.9,31.3c0-0.8-0.1-1.5-0.3-2.1s-0.5-1.2-0.9-1.6s-0.9-0.8-1.4-1c-0.6-0.2-1.2-0.3-1.9-0.3h-3.1v10.1h3.1
	c0.7,0,1.3-0.1,1.9-0.3c0.6-0.2,1-0.6,1.4-1s0.7-1,0.9-1.6C53.8,32.8,53.9,32.1,53.9,31.3 M55.7,31.3c0,1-0.2,1.9-0.5,2.6
	c-0.3,0.8-0.7,1.5-1.3,2s-1.2,1-2,1.3s-1.7,0.5-2.6,0.5h-4.8V24.8h4.8c1,0,1.8,0.2,2.6,0.5s1.5,0.8,2,1.3s1,1.3,1.3,2
	C55.5,29.4,55.7,30.3,55.7,31.3"/>
<path class="st0" d="M59.3,37.8h-1.6v-9.2h1.6V37.8z M59.7,25.7c0,0.2,0,0.3-0.1,0.4s-0.1,0.3-0.3,0.4c-0.1,0.1-0.2,0.2-0.4,0.2
	c-0.1,0.1-0.3,0.1-0.4,0.1c-0.2,0-0.3,0-0.4-0.1c-0.1-0.1-0.3-0.1-0.4-0.2c-0.1-0.1-0.2-0.2-0.2-0.4c-0.1-0.1-0.1-0.3-0.1-0.4
	c0-0.2,0-0.3,0.1-0.4s0.1-0.3,0.2-0.4c0.1-0.1,0.2-0.2,0.4-0.2c0.1-0.1,0.3-0.1,0.4-0.1c0.2,0,0.3,0,0.4,0.1
	c0.1,0.1,0.3,0.1,0.4,0.2c0.1,0.1,0.2,0.2,0.3,0.4C59.6,25.4,59.7,25.6,59.7,25.7"/>
<path class="st0" d="M65.2,33.3c0.3,0,0.6,0,0.9-0.1c0.2-0.1,0.5-0.2,0.6-0.4c0.2-0.2,0.3-0.4,0.4-0.6c0.1-0.2,0.1-0.5,0.1-0.7
	c0-0.6-0.2-1-0.5-1.3s-0.8-0.5-1.5-0.5c-0.6,0-1.1,0.2-1.5,0.5c-0.3,0.3-0.5,0.8-0.5,1.3c0,0.3,0,0.5,0.1,0.7
	c0.1,0.2,0.2,0.4,0.4,0.6c0.2,0.2,0.4,0.3,0.6,0.4C64.6,33.3,64.8,33.3,65.2,33.3 M68.1,38.3c0-0.2-0.1-0.4-0.2-0.5
	s-0.3-0.2-0.5-0.3s-0.5-0.1-0.7-0.2c-0.3,0-0.6-0.1-0.9-0.1s-0.6,0-1-0.1c-0.3,0-0.6,0-0.9-0.1c-0.3,0.2-0.6,0.4-0.8,0.6
	c-0.2,0.2-0.3,0.5-0.3,0.8c0,0.2,0.1,0.4,0.2,0.6c0.1,0.2,0.3,0.3,0.5,0.5c0.2,0.1,0.5,0.2,0.8,0.3s0.7,0.1,1.2,0.1
	c0.4,0,0.8,0,1.2-0.1c0.3-0.1,0.6-0.2,0.9-0.3c0.2-0.1,0.4-0.3,0.5-0.5C68,38.7,68.1,38.5,68.1,38.3 M69.7,29v0.6
	c0,0.2-0.1,0.3-0.4,0.4l-1,0.1c0.2,0.4,0.3,0.8,0.3,1.3c0,0.4-0.1,0.9-0.3,1.2c-0.2,0.4-0.4,0.7-0.7,0.9c-0.3,0.3-0.7,0.5-1.1,0.6
	s-0.9,0.2-1.4,0.2c-0.4,0-0.8-0.1-1.2-0.2c-0.2,0.1-0.3,0.2-0.4,0.4c-0.1,0.1-0.2,0.3-0.2,0.4c0,0.2,0.1,0.4,0.3,0.5
	s0.4,0.2,0.7,0.2c0.3,0,0.6,0.1,1,0.1s0.7,0,1.1,0.1c0.4,0,0.8,0.1,1.1,0.1c0.4,0.1,0.7,0.2,1,0.3c0.3,0.2,0.5,0.4,0.7,0.6
	s0.3,0.6,0.3,1s-0.1,0.8-0.3,1.1c-0.2,0.4-0.5,0.7-0.8,1s-0.8,0.5-1.4,0.7c-0.5,0.2-1.1,0.3-1.8,0.3s-1.2,0.1-1.7,0
	s-0.9-0.3-1.2-0.5s-0.6-0.5-0.7-0.8c-0.2-0.3-0.2-0.6-0.2-0.9c0-0.5,0.1-0.8,0.4-1.1c0.3-0.3,0.7-0.6,1.2-0.8
	c-0.3-0.1-0.5-0.3-0.6-0.5C62,36.1,62,35.8,62,35.4c0-0.1,0-0.3,0.1-0.4c0-0.1,0.1-0.3,0.2-0.4c0.1-0.1,0.2-0.3,0.4-0.4
	c0.1-0.1,0.3-0.2,0.5-0.3c-0.5-0.3-0.8-0.6-1.1-1s-0.4-0.9-0.4-1.5c0-0.4,0.1-0.9,0.3-1.2c0.2-0.4,0.4-0.7,0.7-0.9
	c0.3-0.3,0.7-0.5,1.1-0.6s0.9-0.2,1.4-0.2c0.4,0,0.8,0,1.1,0.1c0.3,0.1,0.7,0.2,0.9,0.4C67.2,29,69.7,29,69.7,29z"/>
<path class="st0" d="M73.1,37.8h-1.6v-9.2h1.6V37.8z M73.4,25.7c0,0.2,0,0.3-0.1,0.4s-0.1,0.3-0.3,0.4c-0.1,0.1-0.2,0.2-0.4,0.2
	c-0.1,0.1-0.3,0.1-0.4,0.1c-0.2,0-0.3,0-0.4-0.1s-0.3-0.1-0.4-0.2s-0.2-0.2-0.2-0.4c-0.1-0.1-0.1-0.3-0.1-0.4c0-0.2,0-0.3,0.1-0.4
	s0.1-0.3,0.2-0.4s0.2-0.2,0.4-0.2c0.1-0.1,0.3-0.1,0.4-0.1c0.2,0,0.3,0,0.4,0.1s0.3,0.1,0.4,0.2s0.2,0.2,0.3,0.4
	C73.4,25.4,73.4,25.6,73.4,25.7"/>
<path class="st0" d="M78.5,37.9c-0.7,0-1.3-0.2-1.7-0.6c-0.4-0.4-0.6-1-0.6-1.7V30h-1.1c-0.1,0-0.2,0-0.2-0.1
	c-0.1-0.1-0.1-0.1-0.1-0.3V29l1.5-0.2l0.4-2.8c0-0.1,0.1-0.2,0.1-0.2c0.1-0.1,0.1-0.1,0.2-0.1h0.8v3.2h2.6V30h-2.6v5.5
	c0,0.4,0.1,0.7,0.3,0.9c0.2,0.2,0.4,0.3,0.7,0.3c0.2,0,0.3,0,0.4-0.1c0.1,0,0.2-0.1,0.3-0.1c0.1-0.1,0.2-0.1,0.2-0.1
	c0.1,0,0.1-0.1,0.2-0.1s0.2,0.1,0.2,0.2l0.5,0.8c-0.3,0.3-0.6,0.5-1,0.6C79.3,37.8,78.9,37.9,78.5,37.9"/>
<path class="st0" d="M87.1,33.6c-0.7,0-1.4,0.1-1.9,0.2c-0.5,0.1-0.9,0.2-1.3,0.4s-0.6,0.3-0.7,0.5S83,35.1,83,35.4
	c0,0.2,0,0.4,0.1,0.6c0.1,0.2,0.2,0.3,0.3,0.4c0.1,0.1,0.3,0.2,0.5,0.2c0.2,0.1,0.4,0.1,0.6,0.1c0.3,0,0.5,0,0.8-0.1
	c0.2-0.1,0.5-0.1,0.7-0.2c0.2-0.1,0.4-0.2,0.6-0.4s0.4-0.3,0.6-0.5L87.1,33.6L87.1,33.6z M82,29.9c0.5-0.5,1.1-0.9,1.6-1.1
	c0.6-0.2,1.2-0.4,1.9-0.4c0.5,0,1,0.1,1.4,0.3c0.4,0.2,0.7,0.4,1,0.7c0.3,0.3,0.5,0.7,0.6,1.1s0.2,0.9,0.2,1.4v5.9H88
	c-0.2,0-0.3,0-0.4-0.1c-0.1,0-0.1-0.2-0.2-0.3l-0.2-0.9c-0.2,0.2-0.5,0.4-0.7,0.6c-0.2,0.2-0.5,0.3-0.7,0.4s-0.5,0.2-0.8,0.3
	s-0.6,0.1-1,0.1s-0.7,0-1-0.1s-0.6-0.2-0.8-0.4c-0.2-0.2-0.4-0.5-0.6-0.8c-0.1-0.3-0.2-0.7-0.2-1.1c0-0.4,0.1-0.7,0.3-1
	c0.2-0.3,0.5-0.6,1-0.9c0.4-0.3,1-0.5,1.7-0.6c0.7-0.2,1.6-0.3,2.6-0.3V32c0-0.7-0.2-1.2-0.5-1.6s-0.8-0.5-1.3-0.5
	c-0.4,0-0.7,0.1-1,0.1c-0.3,0.1-0.5,0.2-0.7,0.3c-0.2,0.1-0.4,0.2-0.5,0.3c-0.1,0.1-0.3,0.1-0.4,0.1s-0.2,0-0.3-0.1
	s-0.1-0.1-0.2-0.2L82,29.9z"/>
<rect x="91.2" y="24.5" class="st0" width="1.6" height="13.3"/>
<path class="st0" d="M107.1,26.8c-0.1,0.1-0.1,0.2-0.2,0.2s-0.1,0.1-0.2,0.1s-0.2-0.1-0.4-0.2c-0.1-0.1-0.3-0.2-0.5-0.3
	c-0.2-0.1-0.5-0.2-0.8-0.3c-0.3-0.1-0.6-0.2-1.1-0.2c-0.4,0-0.7,0.1-1,0.2s-0.5,0.2-0.8,0.4c-0.2,0.2-0.4,0.4-0.5,0.6
	s-0.2,0.5-0.2,0.8c0,0.4,0.1,0.7,0.3,0.9c0.2,0.2,0.4,0.4,0.7,0.6c0.3,0.2,0.6,0.3,1,0.4s0.8,0.3,1.1,0.4c0.4,0.1,0.8,0.3,1.1,0.4
	c0.4,0.2,0.7,0.4,1,0.6c0.3,0.3,0.5,0.6,0.7,0.9c0.2,0.4,0.3,0.8,0.3,1.4c0,0.6-0.1,1.1-0.3,1.6c-0.2,0.5-0.5,0.9-0.8,1.3
	c-0.4,0.4-0.8,0.7-1.4,0.9c-0.5,0.2-1.2,0.3-1.8,0.3c-0.8,0-1.6-0.2-2.3-0.5c-0.7-0.3-1.3-0.7-1.8-1.2l0.5-0.8
	c0-0.1,0.1-0.1,0.2-0.2c0.1,0,0.1-0.1,0.2-0.1s0.2,0,0.3,0.1c0.1,0.1,0.2,0.1,0.3,0.2c0.1,0.1,0.3,0.2,0.4,0.3
	c0.2,0.1,0.3,0.2,0.6,0.3c0.2,0.1,0.4,0.2,0.7,0.2c0.3,0.1,0.6,0.1,0.9,0.1c0.4,0,0.8-0.1,1.1-0.2c0.3-0.1,0.6-0.3,0.8-0.5
	c0.2-0.2,0.4-0.5,0.5-0.7c0.1-0.3,0.2-0.6,0.2-1s-0.1-0.7-0.3-1c-0.2-0.2-0.4-0.5-0.7-0.6c-0.3-0.2-0.6-0.3-1-0.4s-0.8-0.2-1.1-0.4
	c-0.4-0.1-0.8-0.3-1.1-0.4c-0.4-0.2-0.7-0.4-1-0.6c-0.3-0.3-0.5-0.6-0.7-1s-0.3-0.9-0.3-1.4s0.1-0.9,0.3-1.3
	c0.2-0.4,0.4-0.8,0.8-1.1c0.3-0.3,0.8-0.6,1.3-0.8c0.5-0.2,1.1-0.3,1.7-0.3c0.7,0,1.4,0.1,2,0.3c0.6,0.2,1.1,0.6,1.6,1L107.1,26.8z"
	/>
<path class="st0" d="M113.7,36.6c0.9,0,1.6-0.3,2-0.9c0.4-0.6,0.7-1.4,0.7-2.5s-0.2-1.9-0.7-2.5c-0.4-0.6-1.1-0.9-2-0.9
	c-0.5,0-0.9,0.1-1.2,0.2c-0.3,0.2-0.6,0.4-0.9,0.7c-0.2,0.3-0.4,0.7-0.5,1.1c-0.1,0.4-0.2,0.9-0.2,1.5c0,1.1,0.2,1.9,0.7,2.5
	C112.1,36.3,112.7,36.6,113.7,36.6 M113.7,28.5c0.7,0,1.3,0.1,1.8,0.3c0.5,0.2,1,0.5,1.4,0.9s0.7,0.9,0.9,1.5
	c0.2,0.6,0.3,1.2,0.3,1.9s-0.1,1.4-0.3,2c-0.2,0.6-0.5,1.1-0.9,1.5s-0.8,0.7-1.4,0.9c-0.5,0.2-1.1,0.3-1.8,0.3
	c-0.7,0-1.3-0.1-1.8-0.3s-1-0.5-1.4-0.9s-0.7-0.9-0.9-1.5c-0.2-0.6-0.3-1.2-0.3-2c0-0.7,0.1-1.4,0.3-1.9c0.2-0.6,0.5-1.1,0.9-1.5
	s0.8-0.7,1.4-0.9C112.4,28.6,113,28.5,113.7,28.5"/>
<rect x="120.1" y="24.5" class="st0" width="1.6" height="13.3"/>
<path class="st0" d="M131.8,28.6v9.2h-1c-0.2,0-0.4-0.1-0.4-0.3l-0.1-1c-0.4,0.4-0.8,0.8-1.3,1.1s-1.1,0.4-1.7,0.4
	c-0.5,0-0.9-0.1-1.3-0.2c-0.4-0.2-0.7-0.4-1-0.7s-0.5-0.7-0.6-1.1c-0.1-0.4-0.2-0.9-0.2-1.4v-5.8h1.6v5.8c0,0.7,0.2,1.2,0.5,1.6
	c0.3,0.4,0.8,0.6,1.5,0.6c0.5,0,0.9-0.1,1.3-0.3c0.4-0.2,0.8-0.5,1.1-0.9v-6.7h1.6L131.8,28.6L131.8,28.6z"/>
<path class="st0" d="M143.3,25.7c0,0.2,0,0.3-0.1,0.4s-0.1,0.3-0.3,0.4c-0.1,0.1-0.2,0.2-0.4,0.2c-0.1,0.1-0.3,0.1-0.4,0.1
	c-0.2,0-0.3,0-0.4-0.1c-0.1-0.1-0.3-0.1-0.4-0.2c-0.1-0.1-0.2-0.2-0.2-0.4c-0.1-0.1-0.1-0.3-0.1-0.4c0-0.2,0-0.3,0.1-0.4
	s0.1-0.3,0.2-0.4c0.1-0.1,0.2-0.2,0.4-0.2c0.1-0.1,0.3-0.1,0.4-0.1c0.2,0,0.3,0,0.4,0.1c0.1,0.1,0.3,0.1,0.4,0.2
	c0.1,0.1,0.2,0.2,0.3,0.4C143.2,25.4,143.3,25.5,143.3,25.7 M142.9,37.8h-1.6V30h-4.7v5.5c0,0.4,0.1,0.7,0.3,0.9s0.4,0.3,0.7,0.3
	c0.2,0,0.3,0,0.4-0.1c0.1,0,0.2-0.1,0.3-0.1c0.1-0.1,0.2-0.1,0.2-0.1c0.1,0,0.1-0.1,0.2-0.1c0.1,0,0.2,0.1,0.2,0.2l0.5,0.8
	c-0.3,0.3-0.6,0.5-1,0.6s-0.8,0.2-1.2,0.2c-0.7,0-1.3-0.2-1.7-0.6c-0.4-0.4-0.6-1-0.6-1.7V30h-1.1c-0.1,0-0.2,0-0.2-0.1
	c-0.1-0.1-0.1-0.1-0.1-0.3V29l1.5-0.2l0.4-2.8c0-0.1,0.1-0.2,0.1-0.2c0.1-0.1,0.1-0.1,0.2-0.1h0.8v3.2h6.3v8.9H142.9z"/>
<path class="st0" d="M149.4,36.6c0.9,0,1.6-0.3,2-0.9c0.4-0.6,0.7-1.4,0.7-2.5s-0.2-1.9-0.7-2.5c-0.4-0.6-1.1-0.9-2-0.9
	c-0.5,0-0.9,0.1-1.2,0.2c-0.3,0.2-0.6,0.4-0.8,0.7c-0.2,0.3-0.4,0.7-0.5,1.1c-0.1,0.4-0.2,0.9-0.2,1.5c0,1.1,0.2,1.9,0.7,2.5
	C147.8,36.3,148.5,36.6,149.4,36.6 M149.4,28.5c0.7,0,1.3,0.1,1.8,0.3c0.5,0.2,1,0.5,1.4,0.9s0.7,0.9,0.9,1.5s0.3,1.2,0.3,1.9
	s-0.1,1.4-0.3,2s-0.5,1.1-0.9,1.5s-0.8,0.7-1.4,0.9c-0.5,0.2-1.1,0.3-1.8,0.3s-1.3-0.1-1.8-0.3s-1-0.5-1.4-0.9s-0.7-0.9-0.9-1.5
	s-0.3-1.2-0.3-2c0-0.7,0.1-1.4,0.3-1.9c0.2-0.6,0.5-1.1,0.9-1.5s0.8-0.7,1.4-0.9C148.1,28.6,148.7,28.5,149.4,28.5"/>
<path class="st0" d="M157.3,29.9c0.2-0.2,0.4-0.4,0.6-0.6c0.2-0.2,0.5-0.3,0.7-0.5c0.2-0.1,0.5-0.2,0.8-0.3c0.3-0.1,0.6-0.1,0.9-0.1
	c0.5,0,0.9,0.1,1.3,0.2c0.4,0.2,0.7,0.4,1,0.7c0.3,0.3,0.4,0.7,0.6,1.1c0.1,0.4,0.2,0.9,0.2,1.4v5.8h-1.6v-5.8
	c0-0.7-0.2-1.2-0.5-1.6s-0.8-0.6-1.4-0.6c-0.5,0-0.9,0.1-1.3,0.3c-0.4,0.2-0.8,0.5-1.1,0.9v6.7h-1.6v-9.2h1c0.2,0,0.4,0.1,0.4,0.3
	L157.3,29.9z"/>
<path class="st0" d="M171.2,30.1c-0.1,0.1-0.2,0.2-0.3,0.2s-0.2,0-0.3-0.1s-0.3-0.1-0.4-0.2c-0.2-0.1-0.4-0.2-0.6-0.2
	c-0.2-0.1-0.5-0.1-0.8-0.1s-0.5,0-0.7,0.1s-0.4,0.2-0.6,0.3c-0.2,0.1-0.3,0.3-0.4,0.4S167,30.8,167,31s0.1,0.4,0.2,0.6
	c0.1,0.2,0.3,0.3,0.5,0.4s0.5,0.2,0.8,0.3s0.6,0.2,0.9,0.3c0.3,0.1,0.6,0.2,0.9,0.3c0.3,0.1,0.5,0.3,0.8,0.5
	c0.2,0.2,0.4,0.4,0.5,0.7s0.2,0.6,0.2,0.9c0,0.4-0.1,0.8-0.2,1.2c-0.1,0.4-0.4,0.7-0.7,0.9c-0.3,0.3-0.7,0.5-1.1,0.6
	c-0.4,0.1-0.9,0.2-1.5,0.2s-1.2-0.1-1.7-0.3s-1-0.5-1.3-0.8l0.4-0.6c0-0.1,0.1-0.1,0.2-0.2c0.1,0,0.2-0.1,0.3-0.1s0.2,0,0.3,0.1
	s0.3,0.2,0.4,0.3c0.2,0.1,0.4,0.2,0.6,0.3c0.2,0.1,0.6,0.1,0.9,0.1c0.3,0,0.6,0,0.8-0.1s0.4-0.2,0.6-0.3c0.2-0.1,0.3-0.3,0.3-0.5
	c0.1-0.2,0.1-0.4,0.1-0.6c0-0.3-0.1-0.5-0.2-0.6c-0.1-0.2-0.3-0.3-0.5-0.4c-0.2-0.1-0.5-0.2-0.8-0.3s-0.6-0.2-0.9-0.3
	c-0.3-0.1-0.6-0.2-0.9-0.3c-0.3-0.1-0.5-0.3-0.8-0.5c-0.2-0.2-0.4-0.4-0.5-0.7c-0.1-0.3-0.2-0.6-0.2-1s0.1-0.7,0.2-1
	c0.1-0.3,0.4-0.6,0.6-0.8c0.3-0.2,0.6-0.4,1-0.6c0.4-0.1,0.9-0.2,1.4-0.2c0.6,0,1.1,0.1,1.6,0.3c0.5,0.2,0.9,0.5,1.2,0.8L171.2,30.1
	z"/>
<g>
	<path class="st0" d="M45.2,17.7V0.4h6c1.1,0,2.1,0.1,2.9,0.3c0.8,0.2,1.5,0.5,2,0.9s0.9,0.9,1.1,1.5c0.2,0.6,0.4,1.2,0.4,1.9
		c0,0.4-0.1,0.8-0.2,1.2c-0.1,0.4-0.3,0.7-0.6,1s-0.6,0.6-1,0.9c-0.4,0.3-0.9,0.5-1.4,0.7c2.4,0.5,3.6,1.8,3.6,3.9
		c0,0.7-0.1,1.4-0.4,2c-0.3,0.6-0.7,1.2-1.2,1.6c-0.5,0.5-1.2,0.8-2,1.1c-0.8,0.3-1.7,0.4-2.7,0.4L45.2,17.7L45.2,17.7z M48.5,7.9
		H51c1.1,0,1.9-0.2,2.5-0.6s0.9-1,0.9-1.9s-0.3-1.6-0.8-1.9c-0.5-0.4-1.3-0.6-2.4-0.6h-2.8L48.5,7.9L48.5,7.9z M48.5,10.1v5.1h3.3
		c0.6,0,1.1-0.1,1.5-0.2c0.4-0.1,0.7-0.3,1-0.6c0.2-0.2,0.4-0.5,0.5-0.8s0.2-0.7,0.2-1c0-0.4-0.1-0.7-0.2-1
		c-0.1-0.3-0.3-0.6-0.6-0.8s-0.6-0.4-1-0.5s-0.9-0.2-1.5-0.2H48.5z"/>
	<path class="st0" d="M64.5,17.7h-3.2V0.4h3.2V17.7z"/>
	<path class="st0" d="M80.6,0.4V3h-5.2v14.7h-3.2V3H67V0.4H80.6z"/>
	<path class="st0" d="M94.9,0.4V3h-5.2v14.7h-3.2V3h-5.2V0.4H94.9z"/>
	<path class="st0" d="M107.9,0.4V3h-7.7v4.8h6.1v2.5h-6.1v4.9h7.7v2.6H97V0.4H107.9z"/>
	<path class="st0" d="M114,10.9v6.8h-3.2V0.4h5.3c1.2,0,2.2,0.1,3,0.4c0.8,0.2,1.5,0.6,2.1,1c0.5,0.4,0.9,1,1.2,1.6
		c0.3,0.6,0.4,1.3,0.4,2c0,0.6-0.1,1.1-0.3,1.7s-0.4,1-0.7,1.4c-0.3,0.4-0.7,0.8-1.2,1.1s-1,0.6-1.6,0.8c0.4,0.2,0.8,0.6,1.1,1
		l4.3,6.4h-2.9c-0.3,0-0.5-0.1-0.7-0.2s-0.4-0.3-0.5-0.5l-3.6-5.6c-0.1-0.2-0.3-0.4-0.4-0.4c-0.2-0.1-0.4-0.1-0.7-0.1H114V10.9z
		 M114,8.6h2c0.6,0,1.1-0.1,1.6-0.2c0.5-0.2,0.8-0.4,1.1-0.6s0.5-0.6,0.7-1c0.1-0.4,0.2-0.8,0.2-1.2c0-0.9-0.3-1.6-0.9-2
		c-0.6-0.5-1.5-0.7-2.7-0.7h-2C114,2.9,114,8.6,114,8.6z"/>
</g>
</svg>
